<svg width="128" height="142" viewBox="0 0 128 142" fill="none" xmlns="http://www.w3.org/2000/svg">
<path d="M52.5535 0C62.3332 0.934277 70.0424 17.5978 71.2871 26.0675C71.5877 28.1545 71.729 30.2611 71.7101 32.3694C71.6955 34.7584 70.7729 42.0139 71.5896 43.333C72.2874 43.7198 73.5742 43.9874 74.1458 43.423C81.1871 36.3723 85.9115 31.3084 95.9217 28.8954C129.633 20.7686 115.745 51.266 98.4955 60.9105C95.7209 62.4619 86.0397 65.1606 84.9998 66.901C85.7002 67.6976 88.4584 67.3609 89.8098 67.3753C96.9036 67.3552 103.393 67.7041 109.986 70.5766C121.339 75.542 137.773 93.7019 117.776 100.263C94.2059 107.996 81.3026 88.4607 74.724 68.9297C73.2152 64.4497 71.3238 60.4604 66.8054 58.2348C58.5631 54.1749 50.9049 57.6983 51.894 67.5846C52.5733 74.2594 56.5078 77.3783 61.837 80.7311C70.4049 86.641 80.5786 95.1046 84.6279 104.857C85.9122 108.027 86.5765 110.585 86.8827 114.03C87.9479 125.656 77.3979 151.996 62.9211 137.475C52.6705 127.193 48.3768 113.292 52.0559 99.3849C52.5644 97.4621 53.7122 93.723 53.6576 91.8671L53.3908 91.6167C52.1022 91.7555 49.9285 94.9598 49.0264 96.0612C47.3649 98.0705 45.6037 99.9951 43.749 101.828C40.2971 105.238 36.3346 108.089 32.0046 110.279C26.4002 113.155 15.7825 116.247 9.78928 114.286C1.35723 111.527 6.93834 100.866 9.54677 96.0153C15.266 85.3795 24.1012 78.7359 35.0237 74.0871C36.1506 73.6073 37.5999 72.7308 37.9874 71.5525C37.4216 71.1664 29.3429 71.1392 27.9122 71.0378C25.3008 70.8766 22.7152 70.4246 20.2037 69.6904C12.8653 67.5144 5.06805 61.1378 1.59402 54.4977C-5.06096 41.3688 10.6841 38.6515 20.0591 38.8833C28.3823 39.1112 36.2694 43.2889 42.7669 48.2313C44.0312 49.1928 45.9228 51.0688 47.5201 50.2211C47.9265 48.5564 43.8041 40.8049 43.1356 38.4358C42.2534 35.7118 41.5155 32.9241 41.0456 30.0994C39.674 21.8519 41.881 1.3786 52.5535 0Z" fill="#E086AA"/>
</svg>
